# xmcd
#
# Track frame offsets: 
#        183
#        45755
#        83710
#        107308
#        123028
#        149613
#        183458
#        217453
#        236980
#
# Disc length: 3504 seconds
#
# Revision: 3
# Processed by: cddbd v1.5.2PL0 Copyright (c) Steve Scherf et al.
# Submitted via: ExactAudioCopy v0.99pb5
#
DISCID=7a0dae09
DTITLE=Rory Gallagher - Bullfrog Blues
DYEAR=1992
DGENRE=Blues
TTITLE0=Bullfrog Blues
TTITLE1=Walk On Hot Coals
TTITLE2=Hands Off
TTITLE3=Bankers Blues
TTITLE4=Used To Be
TTITLE5=Hoodoo Blues
TTITLE6=Race The Breeze
TTITLE7=The Cuckoo
TTITLE8=Tore Down
EXTD=ID3G:   0
EXTT0=
EXTT1=
EXTT2=
EXTT3=
EXTT4=
EXTT5=
EXTT6=
EXTT7=
EXTT8=
PLAYORDER=
